<mxfile host="Electron" modified="2023-04-13T10:55:13.282Z" agent="Mozilla/5.0 (Windows NT 10.0; Win64; x64) AppleWebKit/537.36 (KHTML, like Gecko) draw.io/21.1.2 Chrome/106.0.5249.199 Electron/21.4.3 Safari/537.36" etag="iRmccoxb7TlnML6dVEWF" version="21.1.2" type="device">
  <diagram name="Page-1" id="31gkf-lO7iW7dteWMut4">
    <mxGraphModel dx="522" dy="516" grid="1" gridSize="10" guides="1" tooltips="1" connect="1" arrows="1" fold="1" page="1" pageScale="1" pageWidth="1200" pageHeight="1600" math="0" shadow="0">
      <root>
        <mxCell id="0" />
        <mxCell id="1" parent="0" />
        <mxCell id="N_0aTPdbnXW3kgj_0EhW-2" value="check if neighbour" style="ellipse;whiteSpace=wrap;html=1;" vertex="1" parent="1">
          <mxGeometry x="220" width="120" height="30" as="geometry" />
        </mxCell>
        <mxCell id="N_0aTPdbnXW3kgj_0EhW-4" value="" style="endArrow=classic;html=1;rounded=0;exitX=0.5;exitY=1;exitDx=0;exitDy=0;entryX=0.5;entryY=0;entryDx=0;entryDy=0;" edge="1" parent="1" source="N_0aTPdbnXW3kgj_0EhW-2" target="N_0aTPdbnXW3kgj_0EhW-5">
          <mxGeometry width="50" height="50" relative="1" as="geometry">
            <mxPoint x="140" y="110" as="sourcePoint" />
            <mxPoint x="190" y="60" as="targetPoint" />
          </mxGeometry>
        </mxCell>
        <mxCell id="N_0aTPdbnXW3kgj_0EhW-5" value="input x and y" style="shape=parallelogram;perimeter=parallelogramPerimeter;whiteSpace=wrap;html=1;fixedSize=1;" vertex="1" parent="1">
          <mxGeometry x="220" y="40" width="120" height="10" as="geometry" />
        </mxCell>
        <mxCell id="N_0aTPdbnXW3kgj_0EhW-7" value="" style="endArrow=classic;html=1;rounded=0;exitX=0.5;exitY=1;exitDx=0;exitDy=0;entryX=0.5;entryY=0;entryDx=0;entryDy=0;" edge="1" parent="1" source="N_0aTPdbnXW3kgj_0EhW-5" target="N_0aTPdbnXW3kgj_0EhW-8">
          <mxGeometry width="50" height="50" relative="1" as="geometry">
            <mxPoint x="40" y="300" as="sourcePoint" />
            <mxPoint x="90" y="250" as="targetPoint" />
          </mxGeometry>
        </mxCell>
        <mxCell id="N_0aTPdbnXW3kgj_0EhW-8" value="if both x and y are fibbonacci" style="rhombus;whiteSpace=wrap;html=1;" vertex="1" parent="1">
          <mxGeometry x="185" y="60" width="190" height="30" as="geometry" />
        </mxCell>
        <mxCell id="N_0aTPdbnXW3kgj_0EhW-9" value="" style="endArrow=classic;html=1;rounded=0;exitX=1;exitY=0.5;exitDx=0;exitDy=0;entryX=0.5;entryY=0;entryDx=0;entryDy=0;" edge="1" parent="1" source="N_0aTPdbnXW3kgj_0EhW-8" target="N_0aTPdbnXW3kgj_0EhW-12">
          <mxGeometry width="50" height="50" relative="1" as="geometry">
            <mxPoint x="190" y="210" as="sourcePoint" />
            <mxPoint x="400" y="90" as="targetPoint" />
            <Array as="points">
              <mxPoint x="395" y="75" />
            </Array>
          </mxGeometry>
        </mxCell>
        <mxCell id="N_0aTPdbnXW3kgj_0EhW-11" value="+" style="text;html=1;align=center;verticalAlign=middle;resizable=0;points=[];autosize=1;strokeColor=none;fillColor=none;" vertex="1" parent="1">
          <mxGeometry x="365" y="55" width="30" height="30" as="geometry" />
        </mxCell>
        <mxCell id="N_0aTPdbnXW3kgj_0EhW-12" value="if abs(x-y) or xor y=2,0&lt;br&gt;1" style="rhombus;whiteSpace=wrap;html=1;" vertex="1" parent="1">
          <mxGeometry x="310" y="85" width="170" height="65" as="geometry" />
        </mxCell>
        <mxCell id="N_0aTPdbnXW3kgj_0EhW-14" value="" style="endArrow=classic;html=1;rounded=0;exitX=1;exitY=0.5;exitDx=0;exitDy=0;entryX=0.5;entryY=0;entryDx=0;entryDy=0;" edge="1" parent="1" source="N_0aTPdbnXW3kgj_0EhW-12" target="N_0aTPdbnXW3kgj_0EhW-16">
          <mxGeometry width="50" height="50" relative="1" as="geometry">
            <mxPoint x="480" y="80" as="sourcePoint" />
            <mxPoint x="500" y="140" as="targetPoint" />
            <Array as="points">
              <mxPoint x="535" y="118" />
            </Array>
          </mxGeometry>
        </mxCell>
        <mxCell id="N_0aTPdbnXW3kgj_0EhW-16" value="output x and y are neighbours" style="shape=parallelogram;perimeter=parallelogramPerimeter;whiteSpace=wrap;html=1;fixedSize=1;" vertex="1" parent="1">
          <mxGeometry x="460" y="140" width="150" height="30" as="geometry" />
        </mxCell>
        <mxCell id="N_0aTPdbnXW3kgj_0EhW-19" value="" style="endArrow=classic;html=1;rounded=0;exitX=0;exitY=0.5;exitDx=0;exitDy=0;entryX=0.5;entryY=0;entryDx=0;entryDy=0;" edge="1" parent="1" source="N_0aTPdbnXW3kgj_0EhW-12" target="N_0aTPdbnXW3kgj_0EhW-20">
          <mxGeometry width="50" height="50" relative="1" as="geometry">
            <mxPoint x="140" y="180" as="sourcePoint" />
            <mxPoint x="190" y="130" as="targetPoint" />
            <Array as="points">
              <mxPoint x="280" y="118" />
            </Array>
          </mxGeometry>
        </mxCell>
        <mxCell id="N_0aTPdbnXW3kgj_0EhW-20" value="y and x are not neighbours" style="shape=parallelogram;perimeter=parallelogramPerimeter;whiteSpace=wrap;html=1;fixedSize=1;" vertex="1" parent="1">
          <mxGeometry x="220" y="140" width="120" height="30" as="geometry" />
        </mxCell>
        <mxCell id="N_0aTPdbnXW3kgj_0EhW-21" value="" style="endArrow=none;html=1;rounded=0;exitX=0.5;exitY=1;exitDx=0;exitDy=0;entryX=0.5;entryY=1;entryDx=0;entryDy=0;" edge="1" parent="1" source="N_0aTPdbnXW3kgj_0EhW-20" target="N_0aTPdbnXW3kgj_0EhW-16">
          <mxGeometry width="50" height="50" relative="1" as="geometry">
            <mxPoint x="220" y="340" as="sourcePoint" />
            <mxPoint x="270" y="290" as="targetPoint" />
            <Array as="points">
              <mxPoint x="280" y="190" />
              <mxPoint x="535" y="190" />
            </Array>
          </mxGeometry>
        </mxCell>
        <mxCell id="N_0aTPdbnXW3kgj_0EhW-24" value="" style="endArrow=none;html=1;rounded=0;entryX=0;entryY=0.5;entryDx=0;entryDy=0;" edge="1" parent="1" target="N_0aTPdbnXW3kgj_0EhW-8">
          <mxGeometry width="50" height="50" relative="1" as="geometry">
            <mxPoint x="400" y="190" as="sourcePoint" />
            <mxPoint x="140" y="280" as="targetPoint" />
            <Array as="points">
              <mxPoint x="400" y="210" />
              <mxPoint x="170" y="210" />
              <mxPoint x="170" y="75" />
            </Array>
          </mxGeometry>
        </mxCell>
      </root>
    </mxGraphModel>
  </diagram>
</mxfile>
